<?xml version="1.0" encoding="UTF-8" standalone="no"?>
<!-- Created with Inkscape (http://www.inkscape.org/) -->

<svg
   width="400"
   height="400"
   viewBox="0 0 105.83333 105.83333"
   version="1.1"
   id="svg5"
   inkscape:version="1.2.1 (9c6d41e, 2022-07-14)"
   sodipodi:docname="logo.svg"
   xmlns:inkscape="http://www.inkscape.org/namespaces/inkscape"
   xmlns:sodipodi="http://sodipodi.sourceforge.net/DTD/sodipodi-0.dtd"
   xmlns="http://www.w3.org/2000/svg"
   xmlns:svg="http://www.w3.org/2000/svg">
  <sodipodi:namedview
     id="namedview7"
     pagecolor="#ffffff"
     bordercolor="#666666"
     borderopacity="1.0"
     inkscape:showpageshadow="2"
     inkscape:pageopacity="0.0"
     inkscape:pagecheckerboard="0"
     inkscape:deskcolor="#d1d1d1"
     inkscape:document-units="mm"
     showgrid="false"
     inkscape:zoom="1.3967356"
     inkscape:cx="107.75125"
     inkscape:cy="115.62675"
     inkscape:window-width="1728"
     inkscape:window-height="1051"
     inkscape:window-x="459"
     inkscape:window-y="1478"
     inkscape:window-maximized="1"
     inkscape:current-layer="rect263" />
  <defs
     id="defs2" />
  <g
     inkscape:label="Layer 1"
     inkscape:groupmode="layer"
     id="layer1">
    <g
       id="rect263">
      <path
         style="color:#000000;fill:#0e232e;stroke-width:10;stroke-linecap:round;stroke-linejoin:round;-inkscape-stroke:none;paint-order:markers stroke fill"
         d="M 15.343813,14.964953 H 91.494585 V 89.789721 H 15.343813 Z"
         id="path473" />
      <path
         id="path471"
         style="color:#000000;fill:#19aeff;stroke-linecap:round;stroke-linejoin:round;paint-order:markers stroke fill"
         d="M 15.343766 9.9647664 A 5.0005 5.0005 0 0 0 10.343555 14.964978 L 10.343555 89.788835 A 5.0005 5.0005 0 0 0 15.343766 94.789046 L 91.494157 94.789046 A 5.0005 5.0005 0 0 0 96.494368 89.788835 L 96.494368 14.964978 A 5.0005 5.0005 0 0 0 91.494157 9.9647664 L 15.343766 9.9647664 z M 20.343978 19.964673 L 36.643241 19.964673 L 36.643241 84.78914 L 20.343978 84.78914 L 20.343978 19.964673 z M 45.9512 19.964673 L 63.807992 19.964673 L 63.807992 75.623291 L 45.9512 19.964673 z M 70.136804 19.964673 L 86.493945 19.964673 L 86.493945 84.78914 L 70.136804 84.78914 L 70.136804 19.964673 z M 43.090393 30.121159 L 60.403031 84.78914 L 43.090393 84.78914 L 43.090393 30.121159 z " />
    </g>
    <g
       aria-label="N"
       transform="scale(0.83499553,1.1976112)"
       id="text375"
       style="font-size:96.421px;line-height:1.25;font-family:Helvetica;-inkscape-font-specification:Helvetica;fill:#19aeff;stroke-width:1.8079" />
  </g>
</svg>
